<?xml version="1.0" encoding="utf-8" standalone="no"?>
<!DOCTYPE svg PUBLIC "-//W3C//DTD SVG 1.1//EN"
  "http://www.w3.org/Graphics/SVG/1.1/DTD/svg11.dtd">
<!-- Created with matplotlib (https://matplotlib.org/) -->
<svg height="251.424531pt" version="1.1" viewBox="0 0 159.403125 251.424531" width="159.403125pt" xmlns="http://www.w3.org/2000/svg" xmlns:xlink="http://www.w3.org/1999/xlink">
 <metadata>
  <rdf:RDF xmlns:cc="http://creativecommons.org/ns#" xmlns:dc="http://purl.org/dc/elements/1.1/" xmlns:rdf="http://www.w3.org/1999/02/22-rdf-syntax-ns#">
   <cc:Work>
    <dc:type rdf:resource="http://purl.org/dc/dcmitype/StillImage"/>
    <dc:date>2022-09-10T18:50:50.840540</dc:date>
    <dc:format>image/svg+xml</dc:format>
    <dc:creator>
     <cc:Agent>
      <dc:title>Matplotlib v3.3.2, https://matplotlib.org/</dc:title>
     </cc:Agent>
    </dc:creator>
   </cc:Work>
  </rdf:RDF>
 </metadata>
 <defs>
  <style type="text/css">*{stroke-linecap:butt;stroke-linejoin:round;}</style>
 </defs>
 <g id="figure_1">
  <g id="patch_1">
   <path d="M 0 251.424531 
L 159.403125 251.424531 
L 159.403125 0 
L 0 0 
z
" style="fill:none;"/>
  </g>
  <g id="axes_1">
   <g id="patch_2">
    <path d="M 40.603125 174.079219 
L 152.203125 174.079219 
L 152.203125 10.999219 
L 40.603125 10.999219 
z
" style="fill:#ffffff;"/>
   </g>
   <g id="PathCollection_1"/>
   <g id="PathCollection_2"/>
   <g id="PathCollection_3"/>
   <g id="PathCollection_4"/>
   <g id="patch_3">
    <path clip-path="url(#p138816bb70)" d="M 43.393125 174.079219 
L 65.713125 174.079219 
L 65.713125 168.643219 
L 43.393125 168.643219 
z
" style="fill:none;stroke:#1a1a1a;stroke-linejoin:miter;stroke-width:1.5;"/>
   </g>
   <g id="patch_4">
    <path clip-path="url(#p138816bb70)" d="M 71.293125 174.079219 
L 93.613125 174.079219 
L 93.613125 167.746279 
L 71.293125 167.746279 
z
" style="fill:none;stroke:#1a1a1a;stroke-linejoin:miter;stroke-width:1.5;"/>
   </g>
   <g id="patch_5">
    <path clip-path="url(#p138816bb70)" d="M 99.193125 174.079219 
L 121.513125 174.079219 
L 121.513125 105.680749 
L 99.193125 105.680749 
z
" style="fill:none;stroke:#1a1a1a;stroke-linejoin:miter;stroke-width:1.5;"/>
   </g>
   <g id="patch_6">
    <path clip-path="url(#p138816bb70)" d="M 127.093125 174.079219 
L 149.413125 174.079219 
L 149.413125 64.136119 
L 127.093125 64.136119 
z
" style="fill:none;stroke:#1a1a1a;stroke-linejoin:miter;stroke-width:1.5;"/>
   </g>
   <g id="matplotlib.axis_1">
    <g id="xtick_1">
     <g id="line2d_1">
      <defs>
       <path d="M 0 0 
L 0 3.5 
" id="m5e09dd60b9" style="stroke:#000000;stroke-width:0.8;"/>
      </defs>
      <g>
       <use style="stroke:#000000;stroke-width:0.8;" x="54.553125" xlink:href="#m5e09dd60b9" y="174.079219"/>
      </g>
     </g>
     <g id="text_1">
      <!-- -SEA -->
      <g transform="translate(57.3125 204.194844)rotate(-90)scale(0.1 -0.1)">
       <defs>
        <path d="M 4.890625 31.390625 
L 31.203125 31.390625 
L 31.203125 23.390625 
L 4.890625 23.390625 
z
" id="DejaVuSans-45"/>
        <path d="M 53.515625 70.515625 
L 53.515625 60.890625 
Q 47.90625 63.578125 42.921875 64.890625 
Q 37.9375 66.21875 33.296875 66.21875 
Q 25.25 66.21875 20.875 63.09375 
Q 16.5 59.96875 16.5 54.203125 
Q 16.5 49.359375 19.40625 46.890625 
Q 22.3125 44.4375 30.421875 42.921875 
L 36.375 41.703125 
Q 47.40625 39.59375 52.65625 34.296875 
Q 57.90625 29 57.90625 20.125 
Q 57.90625 9.515625 50.796875 4.046875 
Q 43.703125 -1.421875 29.984375 -1.421875 
Q 24.8125 -1.421875 18.96875 -0.25 
Q 13.140625 0.921875 6.890625 3.21875 
L 6.890625 13.375 
Q 12.890625 10.015625 18.65625 8.296875 
Q 24.421875 6.59375 29.984375 6.59375 
Q 38.421875 6.59375 43.015625 9.90625 
Q 47.609375 13.234375 47.609375 19.390625 
Q 47.609375 24.75 44.3125 27.78125 
Q 41.015625 30.8125 33.5 32.328125 
L 27.484375 33.5 
Q 16.453125 35.6875 11.515625 40.375 
Q 6.59375 45.0625 6.59375 53.421875 
Q 6.59375 63.09375 13.40625 68.65625 
Q 20.21875 74.21875 32.171875 74.21875 
Q 37.3125 74.21875 42.625 73.28125 
Q 47.953125 72.359375 53.515625 70.515625 
z
" id="DejaVuSans-83"/>
        <path d="M 9.8125 72.90625 
L 55.90625 72.90625 
L 55.90625 64.59375 
L 19.671875 64.59375 
L 19.671875 43.015625 
L 54.390625 43.015625 
L 54.390625 34.71875 
L 19.671875 34.71875 
L 19.671875 8.296875 
L 56.78125 8.296875 
L 56.78125 0 
L 9.8125 0 
z
" id="DejaVuSans-69"/>
        <path d="M 34.1875 63.1875 
L 20.796875 26.90625 
L 47.609375 26.90625 
z
M 28.609375 72.90625 
L 39.796875 72.90625 
L 67.578125 0 
L 57.328125 0 
L 50.6875 18.703125 
L 17.828125 18.703125 
L 11.1875 0 
L 0.78125 0 
z
" id="DejaVuSans-65"/>
       </defs>
       <use xlink:href="#DejaVuSans-45"/>
       <use x="36.083984" xlink:href="#DejaVuSans-83"/>
       <use x="99.560547" xlink:href="#DejaVuSans-69"/>
       <use x="162.744141" xlink:href="#DejaVuSans-65"/>
      </g>
     </g>
    </g>
    <g id="xtick_2">
     <g id="line2d_2">
      <g>
       <use style="stroke:#000000;stroke-width:0.8;" x="82.453125" xlink:href="#m5e09dd60b9" y="174.079219"/>
      </g>
     </g>
     <g id="text_2">
      <!-- DIG-TCB -->
      <g transform="translate(85.2125 221.537031)rotate(-90)scale(0.1 -0.1)">
       <defs>
        <path d="M 19.671875 64.796875 
L 19.671875 8.109375 
L 31.59375 8.109375 
Q 46.6875 8.109375 53.6875 14.9375 
Q 60.6875 21.78125 60.6875 36.53125 
Q 60.6875 51.171875 53.6875 57.984375 
Q 46.6875 64.796875 31.59375 64.796875 
z
M 9.8125 72.90625 
L 30.078125 72.90625 
Q 51.265625 72.90625 61.171875 64.09375 
Q 71.09375 55.28125 71.09375 36.53125 
Q 71.09375 17.671875 61.125 8.828125 
Q 51.171875 0 30.078125 0 
L 9.8125 0 
z
" id="DejaVuSans-68"/>
        <path d="M 9.8125 72.90625 
L 19.671875 72.90625 
L 19.671875 0 
L 9.8125 0 
z
" id="DejaVuSans-73"/>
        <path d="M 59.515625 10.40625 
L 59.515625 29.984375 
L 43.40625 29.984375 
L 43.40625 38.09375 
L 69.28125 38.09375 
L 69.28125 6.78125 
Q 63.578125 2.734375 56.6875 0.65625 
Q 49.8125 -1.421875 42 -1.421875 
Q 24.90625 -1.421875 15.25 8.5625 
Q 5.609375 18.5625 5.609375 36.375 
Q 5.609375 54.25 15.25 64.234375 
Q 24.90625 74.21875 42 74.21875 
Q 49.125 74.21875 55.546875 72.453125 
Q 61.96875 70.703125 67.390625 67.28125 
L 67.390625 56.78125 
Q 61.921875 61.421875 55.765625 63.765625 
Q 49.609375 66.109375 42.828125 66.109375 
Q 29.4375 66.109375 22.71875 58.640625 
Q 16.015625 51.171875 16.015625 36.375 
Q 16.015625 21.625 22.71875 14.15625 
Q 29.4375 6.6875 42.828125 6.6875 
Q 48.046875 6.6875 52.140625 7.59375 
Q 56.25 8.5 59.515625 10.40625 
z
" id="DejaVuSans-71"/>
        <path d="M -0.296875 72.90625 
L 61.375 72.90625 
L 61.375 64.59375 
L 35.5 64.59375 
L 35.5 0 
L 25.59375 0 
L 25.59375 64.59375 
L -0.296875 64.59375 
z
" id="DejaVuSans-84"/>
        <path d="M 64.40625 67.28125 
L 64.40625 56.890625 
Q 59.421875 61.53125 53.78125 63.8125 
Q 48.140625 66.109375 41.796875 66.109375 
Q 29.296875 66.109375 22.65625 58.46875 
Q 16.015625 50.828125 16.015625 36.375 
Q 16.015625 21.96875 22.65625 14.328125 
Q 29.296875 6.6875 41.796875 6.6875 
Q 48.140625 6.6875 53.78125 8.984375 
Q 59.421875 11.28125 64.40625 15.921875 
L 64.40625 5.609375 
Q 59.234375 2.09375 53.4375 0.328125 
Q 47.65625 -1.421875 41.21875 -1.421875 
Q 24.65625 -1.421875 15.125 8.703125 
Q 5.609375 18.84375 5.609375 36.375 
Q 5.609375 53.953125 15.125 64.078125 
Q 24.65625 74.21875 41.21875 74.21875 
Q 47.75 74.21875 53.53125 72.484375 
Q 59.328125 70.75 64.40625 67.28125 
z
" id="DejaVuSans-67"/>
        <path d="M 19.671875 34.8125 
L 19.671875 8.109375 
L 35.5 8.109375 
Q 43.453125 8.109375 47.28125 11.40625 
Q 51.125 14.703125 51.125 21.484375 
Q 51.125 28.328125 47.28125 31.5625 
Q 43.453125 34.8125 35.5 34.8125 
z
M 19.671875 64.796875 
L 19.671875 42.828125 
L 34.28125 42.828125 
Q 41.5 42.828125 45.03125 45.53125 
Q 48.578125 48.25 48.578125 53.8125 
Q 48.578125 59.328125 45.03125 62.0625 
Q 41.5 64.796875 34.28125 64.796875 
z
M 9.8125 72.90625 
L 35.015625 72.90625 
Q 46.296875 72.90625 52.390625 68.21875 
Q 58.5 63.53125 58.5 54.890625 
Q 58.5 48.1875 55.375 44.234375 
Q 52.25 40.28125 46.1875 39.3125 
Q 53.46875 37.75 57.5 32.78125 
Q 61.53125 27.828125 61.53125 20.40625 
Q 61.53125 10.640625 54.890625 5.3125 
Q 48.25 0 35.984375 0 
L 9.8125 0 
z
" id="DejaVuSans-66"/>
       </defs>
       <use xlink:href="#DejaVuSans-68"/>
       <use x="77.001953" xlink:href="#DejaVuSans-73"/>
       <use x="106.494141" xlink:href="#DejaVuSans-71"/>
       <use x="183.984375" xlink:href="#DejaVuSans-45"/>
       <use x="210.943359" xlink:href="#DejaVuSans-84"/>
       <use x="266.152344" xlink:href="#DejaVuSans-67"/>
       <use x="335.976562" xlink:href="#DejaVuSans-66"/>
      </g>
     </g>
    </g>
    <g id="xtick_3">
     <g id="line2d_3">
      <g>
       <use style="stroke:#000000;stroke-width:0.8;" x="110.353125" xlink:href="#m5e09dd60b9" y="174.079219"/>
      </g>
     </g>
     <g id="text_3">
      <!-- CD19-TCB -->
      <g transform="translate(113.1125 230.546406)rotate(-90)scale(0.1 -0.1)">
       <defs>
        <path d="M 12.40625 8.296875 
L 28.515625 8.296875 
L 28.515625 63.921875 
L 10.984375 60.40625 
L 10.984375 69.390625 
L 28.421875 72.90625 
L 38.28125 72.90625 
L 38.28125 8.296875 
L 54.390625 8.296875 
L 54.390625 0 
L 12.40625 0 
z
" id="DejaVuSans-49"/>
        <path d="M 10.984375 1.515625 
L 10.984375 10.5 
Q 14.703125 8.734375 18.5 7.8125 
Q 22.3125 6.890625 25.984375 6.890625 
Q 35.75 6.890625 40.890625 13.453125 
Q 46.046875 20.015625 46.78125 33.40625 
Q 43.953125 29.203125 39.59375 26.953125 
Q 35.25 24.703125 29.984375 24.703125 
Q 19.046875 24.703125 12.671875 31.3125 
Q 6.296875 37.9375 6.296875 49.421875 
Q 6.296875 60.640625 12.9375 67.421875 
Q 19.578125 74.21875 30.609375 74.21875 
Q 43.265625 74.21875 49.921875 64.515625 
Q 56.59375 54.828125 56.59375 36.375 
Q 56.59375 19.140625 48.40625 8.859375 
Q 40.234375 -1.421875 26.421875 -1.421875 
Q 22.703125 -1.421875 18.890625 -0.6875 
Q 15.09375 0.046875 10.984375 1.515625 
z
M 30.609375 32.421875 
Q 37.25 32.421875 41.125 36.953125 
Q 45.015625 41.5 45.015625 49.421875 
Q 45.015625 57.28125 41.125 61.84375 
Q 37.25 66.40625 30.609375 66.40625 
Q 23.96875 66.40625 20.09375 61.84375 
Q 16.21875 57.28125 16.21875 49.421875 
Q 16.21875 41.5 20.09375 36.953125 
Q 23.96875 32.421875 30.609375 32.421875 
z
" id="DejaVuSans-57"/>
       </defs>
       <use xlink:href="#DejaVuSans-67"/>
       <use x="69.824219" xlink:href="#DejaVuSans-68"/>
       <use x="146.826172" xlink:href="#DejaVuSans-49"/>
       <use x="210.449219" xlink:href="#DejaVuSans-57"/>
       <use x="274.072266" xlink:href="#DejaVuSans-45"/>
       <use x="301.03125" xlink:href="#DejaVuSans-84"/>
       <use x="356.240234" xlink:href="#DejaVuSans-67"/>
       <use x="426.064453" xlink:href="#DejaVuSans-66"/>
      </g>
     </g>
    </g>
    <g id="xtick_4">
     <g id="line2d_4">
      <g>
       <use style="stroke:#000000;stroke-width:0.8;" x="138.253125" xlink:href="#m5e09dd60b9" y="174.079219"/>
      </g>
     </g>
     <g id="text_4">
      <!-- CD20-TCB -->
      <g transform="translate(141.0125 230.546406)rotate(-90)scale(0.1 -0.1)">
       <defs>
        <path d="M 19.1875 8.296875 
L 53.609375 8.296875 
L 53.609375 0 
L 7.328125 0 
L 7.328125 8.296875 
Q 12.9375 14.109375 22.625 23.890625 
Q 32.328125 33.6875 34.8125 36.53125 
Q 39.546875 41.84375 41.421875 45.53125 
Q 43.3125 49.21875 43.3125 52.78125 
Q 43.3125 58.59375 39.234375 62.25 
Q 35.15625 65.921875 28.609375 65.921875 
Q 23.96875 65.921875 18.8125 64.3125 
Q 13.671875 62.703125 7.8125 59.421875 
L 7.8125 69.390625 
Q 13.765625 71.78125 18.9375 73 
Q 24.125 74.21875 28.421875 74.21875 
Q 39.75 74.21875 46.484375 68.546875 
Q 53.21875 62.890625 53.21875 53.421875 
Q 53.21875 48.921875 51.53125 44.890625 
Q 49.859375 40.875 45.40625 35.40625 
Q 44.1875 33.984375 37.640625 27.21875 
Q 31.109375 20.453125 19.1875 8.296875 
z
" id="DejaVuSans-50"/>
        <path d="M 31.78125 66.40625 
Q 24.171875 66.40625 20.328125 58.90625 
Q 16.5 51.421875 16.5 36.375 
Q 16.5 21.390625 20.328125 13.890625 
Q 24.171875 6.390625 31.78125 6.390625 
Q 39.453125 6.390625 43.28125 13.890625 
Q 47.125 21.390625 47.125 36.375 
Q 47.125 51.421875 43.28125 58.90625 
Q 39.453125 66.40625 31.78125 66.40625 
z
M 31.78125 74.21875 
Q 44.046875 74.21875 50.515625 64.515625 
Q 56.984375 54.828125 56.984375 36.375 
Q 56.984375 17.96875 50.515625 8.265625 
Q 44.046875 -1.421875 31.78125 -1.421875 
Q 19.53125 -1.421875 13.0625 8.265625 
Q 6.59375 17.96875 6.59375 36.375 
Q 6.59375 54.828125 13.0625 64.515625 
Q 19.53125 74.21875 31.78125 74.21875 
z
" id="DejaVuSans-48"/>
       </defs>
       <use xlink:href="#DejaVuSans-67"/>
       <use x="69.824219" xlink:href="#DejaVuSans-68"/>
       <use x="146.826172" xlink:href="#DejaVuSans-50"/>
       <use x="210.449219" xlink:href="#DejaVuSans-48"/>
       <use x="274.072266" xlink:href="#DejaVuSans-45"/>
       <use x="301.03125" xlink:href="#DejaVuSans-84"/>
       <use x="356.240234" xlink:href="#DejaVuSans-67"/>
       <use x="426.064453" xlink:href="#DejaVuSans-66"/>
      </g>
     </g>
    </g>
    <g id="text_5">
     <!-- condition -->
     <g transform="translate(73.285156 242.144844)scale(0.1 -0.1)">
      <defs>
       <path d="M 48.78125 52.59375 
L 48.78125 44.1875 
Q 44.96875 46.296875 41.140625 47.34375 
Q 37.3125 48.390625 33.40625 48.390625 
Q 24.65625 48.390625 19.8125 42.84375 
Q 14.984375 37.3125 14.984375 27.296875 
Q 14.984375 17.28125 19.8125 11.734375 
Q 24.65625 6.203125 33.40625 6.203125 
Q 37.3125 6.203125 41.140625 7.25 
Q 44.96875 8.296875 48.78125 10.40625 
L 48.78125 2.09375 
Q 45.015625 0.34375 40.984375 -0.53125 
Q 36.96875 -1.421875 32.421875 -1.421875 
Q 20.0625 -1.421875 12.78125 6.34375 
Q 5.515625 14.109375 5.515625 27.296875 
Q 5.515625 40.671875 12.859375 48.328125 
Q 20.21875 56 33.015625 56 
Q 37.15625 56 41.109375 55.140625 
Q 45.0625 54.296875 48.78125 52.59375 
z
" id="DejaVuSans-99"/>
       <path d="M 30.609375 48.390625 
Q 23.390625 48.390625 19.1875 42.75 
Q 14.984375 37.109375 14.984375 27.296875 
Q 14.984375 17.484375 19.15625 11.84375 
Q 23.34375 6.203125 30.609375 6.203125 
Q 37.796875 6.203125 41.984375 11.859375 
Q 46.1875 17.53125 46.1875 27.296875 
Q 46.1875 37.015625 41.984375 42.703125 
Q 37.796875 48.390625 30.609375 48.390625 
z
M 30.609375 56 
Q 42.328125 56 49.015625 48.375 
Q 55.71875 40.765625 55.71875 27.296875 
Q 55.71875 13.875 49.015625 6.21875 
Q 42.328125 -1.421875 30.609375 -1.421875 
Q 18.84375 -1.421875 12.171875 6.21875 
Q 5.515625 13.875 5.515625 27.296875 
Q 5.515625 40.765625 12.171875 48.375 
Q 18.84375 56 30.609375 56 
z
" id="DejaVuSans-111"/>
       <path d="M 54.890625 33.015625 
L 54.890625 0 
L 45.90625 0 
L 45.90625 32.71875 
Q 45.90625 40.484375 42.875 44.328125 
Q 39.84375 48.1875 33.796875 48.1875 
Q 26.515625 48.1875 22.3125 43.546875 
Q 18.109375 38.921875 18.109375 30.90625 
L 18.109375 0 
L 9.078125 0 
L 9.078125 54.6875 
L 18.109375 54.6875 
L 18.109375 46.1875 
Q 21.34375 51.125 25.703125 53.5625 
Q 30.078125 56 35.796875 56 
Q 45.21875 56 50.046875 50.171875 
Q 54.890625 44.34375 54.890625 33.015625 
z
" id="DejaVuSans-110"/>
       <path d="M 45.40625 46.390625 
L 45.40625 75.984375 
L 54.390625 75.984375 
L 54.390625 0 
L 45.40625 0 
L 45.40625 8.203125 
Q 42.578125 3.328125 38.25 0.953125 
Q 33.9375 -1.421875 27.875 -1.421875 
Q 17.96875 -1.421875 11.734375 6.484375 
Q 5.515625 14.40625 5.515625 27.296875 
Q 5.515625 40.1875 11.734375 48.09375 
Q 17.96875 56 27.875 56 
Q 33.9375 56 38.25 53.625 
Q 42.578125 51.265625 45.40625 46.390625 
z
M 14.796875 27.296875 
Q 14.796875 17.390625 18.875 11.75 
Q 22.953125 6.109375 30.078125 6.109375 
Q 37.203125 6.109375 41.296875 11.75 
Q 45.40625 17.390625 45.40625 27.296875 
Q 45.40625 37.203125 41.296875 42.84375 
Q 37.203125 48.484375 30.078125 48.484375 
Q 22.953125 48.484375 18.875 42.84375 
Q 14.796875 37.203125 14.796875 27.296875 
z
" id="DejaVuSans-100"/>
       <path d="M 9.421875 54.6875 
L 18.40625 54.6875 
L 18.40625 0 
L 9.421875 0 
z
M 9.421875 75.984375 
L 18.40625 75.984375 
L 18.40625 64.59375 
L 9.421875 64.59375 
z
" id="DejaVuSans-105"/>
       <path d="M 18.3125 70.21875 
L 18.3125 54.6875 
L 36.8125 54.6875 
L 36.8125 47.703125 
L 18.3125 47.703125 
L 18.3125 18.015625 
Q 18.3125 11.328125 20.140625 9.421875 
Q 21.96875 7.515625 27.59375 7.515625 
L 36.8125 7.515625 
L 36.8125 0 
L 27.59375 0 
Q 17.1875 0 13.234375 3.875 
Q 9.28125 7.765625 9.28125 18.015625 
L 9.28125 47.703125 
L 2.6875 47.703125 
L 2.6875 54.6875 
L 9.28125 54.6875 
L 9.28125 70.21875 
z
" id="DejaVuSans-116"/>
      </defs>
      <use xlink:href="#DejaVuSans-99"/>
      <use x="54.980469" xlink:href="#DejaVuSans-111"/>
      <use x="116.162109" xlink:href="#DejaVuSans-110"/>
      <use x="179.541016" xlink:href="#DejaVuSans-100"/>
      <use x="243.017578" xlink:href="#DejaVuSans-105"/>
      <use x="270.800781" xlink:href="#DejaVuSans-116"/>
      <use x="310.009766" xlink:href="#DejaVuSans-105"/>
      <use x="337.792969" xlink:href="#DejaVuSans-111"/>
      <use x="398.974609" xlink:href="#DejaVuSans-110"/>
     </g>
    </g>
   </g>
   <g id="matplotlib.axis_2">
    <g id="ytick_1">
     <g id="line2d_5">
      <defs>
       <path d="M 0 0 
L -3.5 0 
" id="m6a1b00bc1d" style="stroke:#000000;stroke-width:0.8;"/>
      </defs>
      <g>
       <use style="stroke:#000000;stroke-width:0.8;" x="40.603125" xlink:href="#m6a1b00bc1d" y="174.079219"/>
      </g>
     </g>
     <g id="text_6">
      <!-- 0 -->
      <g transform="translate(27.240625 177.878438)scale(0.1 -0.1)">
       <use xlink:href="#DejaVuSans-48"/>
      </g>
     </g>
    </g>
    <g id="ytick_2">
     <g id="line2d_6">
      <g>
       <use style="stroke:#000000;stroke-width:0.8;" x="40.603125" xlink:href="#m6a1b00bc1d" y="10.999219"/>
      </g>
     </g>
     <g id="text_7">
      <!-- 30 -->
      <g transform="translate(20.878125 14.798438)scale(0.1 -0.1)">
       <defs>
        <path d="M 40.578125 39.3125 
Q 47.65625 37.796875 51.625 33 
Q 55.609375 28.21875 55.609375 21.1875 
Q 55.609375 10.40625 48.1875 4.484375 
Q 40.765625 -1.421875 27.09375 -1.421875 
Q 22.515625 -1.421875 17.65625 -0.515625 
Q 12.796875 0.390625 7.625 2.203125 
L 7.625 11.71875 
Q 11.71875 9.328125 16.59375 8.109375 
Q 21.484375 6.890625 26.8125 6.890625 
Q 36.078125 6.890625 40.9375 10.546875 
Q 45.796875 14.203125 45.796875 21.1875 
Q 45.796875 27.640625 41.28125 31.265625 
Q 36.765625 34.90625 28.71875 34.90625 
L 20.21875 34.90625 
L 20.21875 43.015625 
L 29.109375 43.015625 
Q 36.375 43.015625 40.234375 45.921875 
Q 44.09375 48.828125 44.09375 54.296875 
Q 44.09375 59.90625 40.109375 62.90625 
Q 36.140625 65.921875 28.71875 65.921875 
Q 24.65625 65.921875 20.015625 65.03125 
Q 15.375 64.15625 9.8125 62.3125 
L 9.8125 71.09375 
Q 15.4375 72.65625 20.34375 73.4375 
Q 25.25 74.21875 29.59375 74.21875 
Q 40.828125 74.21875 47.359375 69.109375 
Q 53.90625 64.015625 53.90625 55.328125 
Q 53.90625 49.265625 50.4375 45.09375 
Q 46.96875 40.921875 40.578125 39.3125 
z
" id="DejaVuSans-51"/>
       </defs>
       <use xlink:href="#DejaVuSans-51"/>
       <use x="63.623047" xlink:href="#DejaVuSans-48"/>
      </g>
     </g>
    </g>
    <g id="text_8">
     <!-- GrzmB -->
     <g transform="translate(14.798438 109.393906)rotate(-90)scale(0.1 -0.1)">
      <defs>
       <path d="M 41.109375 46.296875 
Q 39.59375 47.171875 37.8125 47.578125 
Q 36.03125 48 33.890625 48 
Q 26.265625 48 22.1875 43.046875 
Q 18.109375 38.09375 18.109375 28.8125 
L 18.109375 0 
L 9.078125 0 
L 9.078125 54.6875 
L 18.109375 54.6875 
L 18.109375 46.1875 
Q 20.953125 51.171875 25.484375 53.578125 
Q 30.03125 56 36.53125 56 
Q 37.453125 56 38.578125 55.875 
Q 39.703125 55.765625 41.0625 55.515625 
z
" id="DejaVuSans-114"/>
       <path d="M 5.515625 54.6875 
L 48.1875 54.6875 
L 48.1875 46.484375 
L 14.40625 7.171875 
L 48.1875 7.171875 
L 48.1875 0 
L 4.296875 0 
L 4.296875 8.203125 
L 38.09375 47.515625 
L 5.515625 47.515625 
z
" id="DejaVuSans-122"/>
       <path d="M 52 44.1875 
Q 55.375 50.25 60.0625 53.125 
Q 64.75 56 71.09375 56 
Q 79.640625 56 84.28125 50.015625 
Q 88.921875 44.046875 88.921875 33.015625 
L 88.921875 0 
L 79.890625 0 
L 79.890625 32.71875 
Q 79.890625 40.578125 77.09375 44.375 
Q 74.3125 48.1875 68.609375 48.1875 
Q 61.625 48.1875 57.5625 43.546875 
Q 53.515625 38.921875 53.515625 30.90625 
L 53.515625 0 
L 44.484375 0 
L 44.484375 32.71875 
Q 44.484375 40.625 41.703125 44.40625 
Q 38.921875 48.1875 33.109375 48.1875 
Q 26.21875 48.1875 22.15625 43.53125 
Q 18.109375 38.875 18.109375 30.90625 
L 18.109375 0 
L 9.078125 0 
L 9.078125 54.6875 
L 18.109375 54.6875 
L 18.109375 46.1875 
Q 21.1875 51.21875 25.484375 53.609375 
Q 29.78125 56 35.6875 56 
Q 41.65625 56 45.828125 52.96875 
Q 50 49.953125 52 44.1875 
z
" id="DejaVuSans-109"/>
      </defs>
      <use xlink:href="#DejaVuSans-71"/>
      <use x="77.490234" xlink:href="#DejaVuSans-114"/>
      <use x="118.603516" xlink:href="#DejaVuSans-122"/>
      <use x="171.09375" xlink:href="#DejaVuSans-109"/>
      <use x="268.505859" xlink:href="#DejaVuSans-66"/>
     </g>
    </g>
   </g>
   <g id="line2d_7">
    <path clip-path="url(#p138816bb70)" d="M 54.553125 171.660199 
L 54.553125 165.626239 
" style="fill:none;stroke:#1a1a1a;stroke-linecap:square;stroke-width:2.7;"/>
   </g>
   <g id="line2d_8">
    <path clip-path="url(#p138816bb70)" d="M 82.453125 170.056579 
L 82.453125 165.435979 
" style="fill:none;stroke:#1a1a1a;stroke-linecap:square;stroke-width:2.7;"/>
   </g>
   <g id="line2d_9">
    <path clip-path="url(#p138816bb70)" d="M 110.353125 120.140509 
L 110.353125 93.218719 
" style="fill:none;stroke:#1a1a1a;stroke-linecap:square;stroke-width:2.7;"/>
   </g>
   <g id="line2d_10">
    <path clip-path="url(#p138816bb70)" d="M 138.253125 91.995619 
L 138.253125 34.238119 
" style="fill:none;stroke:#1a1a1a;stroke-linecap:square;stroke-width:2.7;"/>
   </g>
   <g id="patch_7">
    <path d="M 40.603125 174.079219 
L 40.603125 10.999219 
" style="fill:none;stroke:#000000;stroke-linecap:square;stroke-linejoin:miter;stroke-width:0.8;"/>
   </g>
   <g id="patch_8">
    <path d="M 152.203125 174.079219 
L 152.203125 10.999219 
" style="fill:none;stroke:#000000;stroke-linecap:square;stroke-linejoin:miter;stroke-width:0.8;"/>
   </g>
   <g id="patch_9">
    <path d="M 40.603125 174.079219 
L 152.203125 174.079219 
" style="fill:none;stroke:#000000;stroke-linecap:square;stroke-linejoin:miter;stroke-width:0.8;"/>
   </g>
   <g id="patch_10">
    <path d="M 40.603125 10.999219 
L 152.203125 10.999219 
" style="fill:none;stroke:#000000;stroke-linecap:square;stroke-linejoin:miter;stroke-width:0.8;"/>
   </g>
   <g id="PathCollection_5">
    <path clip-path="url(#p138816bb70)" d="M 0 254.924531 
C 0.928211 254.924531 1.81853 254.555749 2.474874 253.899405 
C 3.131218 253.243061 3.5 252.352742 3.5 251.424531 
C 3.5 250.49632 3.131218 249.606002 2.474874 248.949658 
C 1.81853 248.293313 0.928211 247.924531 0 247.924531 
C -0.928211 247.924531 -1.81853 248.293313 -2.474874 248.949658 
C -3.131218 249.606002 -3.5 250.49632 -3.5 251.424531 
C -3.5 252.352742 -3.131218 253.243061 -2.474874 253.899405 
C -1.81853 254.555749 -0.928211 254.924531 0 254.924531 
z
" style="fill:none;stroke:#1f1f1f;"/>
   </g>
   <g id="PathCollection_6">
    <path clip-path="url(#p138816bb70)" d="M 0 254.924531 
C 0.928211 254.924531 1.81853 254.555749 2.474874 253.899405 
C 3.131218 253.243061 3.5 252.352742 3.5 251.424531 
C 3.5 250.49632 3.131218 249.606002 2.474874 248.949658 
C 1.81853 248.293313 0.928211 247.924531 0 247.924531 
C -0.928211 247.924531 -1.81853 248.293313 -2.474874 248.949658 
C -3.131218 249.606002 -3.5 250.49632 -3.5 251.424531 
C -3.5 252.352742 -3.131218 253.243061 -2.474874 253.899405 
C -1.81853 254.555749 -0.928211 254.924531 0 254.924531 
z
" style="fill:none;stroke:#1f1f1f;"/>
   </g>
   <g id="PathCollection_7">
    <path clip-path="url(#p138816bb70)" d="M 0 254.924531 
C 0.928211 254.924531 1.81853 254.555749 2.474874 253.899405 
C 3.131218 253.243061 3.5 252.352742 3.5 251.424531 
C 3.5 250.49632 3.131218 249.606002 2.474874 248.949658 
C 1.81853 248.293313 0.928211 247.924531 0 247.924531 
C -0.928211 247.924531 -1.81853 248.293313 -2.474874 248.949658 
C -3.131218 249.606002 -3.5 250.49632 -3.5 251.424531 
C -3.5 252.352742 -3.131218 253.243061 -2.474874 253.899405 
C -1.81853 254.555749 -0.928211 254.924531 0 254.924531 
z
" style="fill:none;stroke:#1f1f1f;"/>
   </g>
   <g id="PathCollection_8">
    <defs>
     <path d="M 0 3.5 
C 0.928211 3.5 1.81853 3.131218 2.474874 2.474874 
C 3.131218 1.81853 3.5 0.928211 3.5 -0 
C 3.5 -0.928211 3.131218 -1.81853 2.474874 -2.474874 
C 1.81853 -3.131218 0.928211 -3.5 0 -3.5 
C -0.928211 -3.5 -1.81853 -3.131218 -2.474874 -2.474874 
C -3.131218 -1.81853 -3.5 -0.928211 -3.5 0 
C -3.5 0.928211 -3.131218 1.81853 -2.474874 2.474874 
C -1.81853 3.131218 -0.928211 3.5 0 3.5 
z
" id="C0_0_da138b51a0"/>
    </defs>
    <g clip-path="url(#p138816bb70)">
     <use style="fill:#333333;stroke:#1f1f1f;" x="63.549549" xlink:href="#C0_0_da138b51a0" y="171.524299"/>
    </g>
    <g clip-path="url(#p138816bb70)">
     <use style="fill:#333333;stroke:#1f1f1f;" x="63.250286" xlink:href="#C0_0_da138b51a0" y="171.796099"/>
    </g>
    <g clip-path="url(#p138816bb70)">
     <use style="fill:#333333;stroke:#1f1f1f;" x="63.472492" xlink:href="#C0_0_da138b51a0" y="165.109819"/>
    </g>
    <g clip-path="url(#p138816bb70)">
     <use style="fill:#333333;stroke:#1f1f1f;" x="62.684331" xlink:href="#C0_0_da138b51a0" y="166.142659"/>
    </g>
   </g>
   <g id="PathCollection_9">
    <path clip-path="url(#p138816bb70)" d="M 0 254.924531 
C 0.928211 254.924531 1.81853 254.555749 2.474874 253.899405 
C 3.131218 253.243061 3.5 252.352742 3.5 251.424531 
C 3.5 250.49632 3.131218 249.606002 2.474874 248.949658 
C 1.81853 248.293313 0.928211 247.924531 0 247.924531 
C -0.928211 247.924531 -1.81853 248.293313 -2.474874 248.949658 
C -3.131218 249.606002 -3.5 250.49632 -3.5 251.424531 
C -3.5 252.352742 -3.131218 253.243061 -2.474874 253.899405 
C -1.81853 254.555749 -0.928211 254.924531 0 254.924531 
z
" style="fill:none;stroke:#1f1f1f;"/>
   </g>
   <g id="PathCollection_10">
    <path clip-path="url(#p138816bb70)" d="M 0 254.924531 
C 0.928211 254.924531 1.81853 254.555749 2.474874 253.899405 
C 3.131218 253.243061 3.5 252.352742 3.5 251.424531 
C 3.5 250.49632 3.131218 249.606002 2.474874 248.949658 
C 1.81853 248.293313 0.928211 247.924531 0 247.924531 
C -0.928211 247.924531 -1.81853 248.293313 -2.474874 248.949658 
C -3.131218 249.606002 -3.5 250.49632 -3.5 251.424531 
C -3.5 252.352742 -3.131218 253.243061 -2.474874 253.899405 
C -1.81853 254.555749 -0.928211 254.924531 0 254.924531 
z
" style="fill:none;stroke:#1f1f1f;"/>
   </g>
   <g id="PathCollection_11">
    <path clip-path="url(#p138816bb70)" d="M 0 254.924531 
C 0.928211 254.924531 1.81853 254.555749 2.474874 253.899405 
C 3.131218 253.243061 3.5 252.352742 3.5 251.424531 
C 3.5 250.49632 3.131218 249.606002 2.474874 248.949658 
C 1.81853 248.293313 0.928211 247.924531 0 247.924531 
C -0.928211 247.924531 -1.81853 248.293313 -2.474874 248.949658 
C -3.131218 249.606002 -3.5 250.49632 -3.5 251.424531 
C -3.5 252.352742 -3.131218 253.243061 -2.474874 253.899405 
C -1.81853 254.555749 -0.928211 254.924531 0 254.924531 
z
" style="fill:none;stroke:#1f1f1f;"/>
   </g>
   <g id="PathCollection_12">
    <defs>
     <path d="M 0 3.5 
C 0.928211 3.5 1.81853 3.131218 2.474874 2.474874 
C 3.131218 1.81853 3.5 0.928211 3.5 -0 
C 3.5 -0.928211 3.131218 -1.81853 2.474874 -2.474874 
C 1.81853 -3.131218 0.928211 -3.5 0 -3.5 
C -0.928211 -3.5 -1.81853 -3.131218 -2.474874 -2.474874 
C -3.131218 -1.81853 -3.5 -0.928211 -3.5 0 
C -3.5 0.928211 -3.131218 1.81853 -2.474874 2.474874 
C -1.81853 3.131218 -0.928211 3.5 0 3.5 
z
" id="C1_0_4c1bff3128"/>
    </defs>
    <g clip-path="url(#p138816bb70)">
     <use style="fill:#333333;stroke:#1f1f1f;" x="90.719619" xlink:href="#C1_0_4c1bff3128" y="170.382739"/>
    </g>
    <g clip-path="url(#p138816bb70)">
     <use style="fill:#333333;stroke:#1f1f1f;" x="90.381422" xlink:href="#C1_0_4c1bff3128" y="169.730419"/>
    </g>
    <g clip-path="url(#p138816bb70)">
     <use style="fill:#333333;stroke:#1f1f1f;" x="90.214183" xlink:href="#C1_0_4c1bff3128" y="164.674939"/>
    </g>
    <g clip-path="url(#p138816bb70)">
     <use style="fill:#333333;stroke:#1f1f1f;" x="90.511998" xlink:href="#C1_0_4c1bff3128" y="166.197019"/>
    </g>
   </g>
   <g id="PathCollection_13">
    <path clip-path="url(#p138816bb70)" d="M 0 254.924531 
C 0.928211 254.924531 1.81853 254.555749 2.474874 253.899405 
C 3.131218 253.243061 3.5 252.352742 3.5 251.424531 
C 3.5 250.49632 3.131218 249.606002 2.474874 248.949658 
C 1.81853 248.293313 0.928211 247.924531 0 247.924531 
C -0.928211 247.924531 -1.81853 248.293313 -2.474874 248.949658 
C -3.131218 249.606002 -3.5 250.49632 -3.5 251.424531 
C -3.5 252.352742 -3.131218 253.243061 -2.474874 253.899405 
C -1.81853 254.555749 -0.928211 254.924531 0 254.924531 
z
" style="fill:none;stroke:#1f1f1f;"/>
   </g>
   <g id="PathCollection_14">
    <path clip-path="url(#p138816bb70)" d="M 0 254.924531 
C 0.928211 254.924531 1.81853 254.555749 2.474874 253.899405 
C 3.131218 253.243061 3.5 252.352742 3.5 251.424531 
C 3.5 250.49632 3.131218 249.606002 2.474874 248.949658 
C 1.81853 248.293313 0.928211 247.924531 0 247.924531 
C -0.928211 247.924531 -1.81853 248.293313 -2.474874 248.949658 
C -3.131218 249.606002 -3.5 250.49632 -3.5 251.424531 
C -3.5 252.352742 -3.131218 253.243061 -2.474874 253.899405 
C -1.81853 254.555749 -0.928211 254.924531 0 254.924531 
z
" style="fill:none;stroke:#1f1f1f;"/>
   </g>
   <g id="PathCollection_15">
    <path clip-path="url(#p138816bb70)" d="M 0 254.924531 
C 0.928211 254.924531 1.81853 254.555749 2.474874 253.899405 
C 3.131218 253.243061 3.5 252.352742 3.5 251.424531 
C 3.5 250.49632 3.131218 249.606002 2.474874 248.949658 
C 1.81853 248.293313 0.928211 247.924531 0 247.924531 
C -0.928211 247.924531 -1.81853 248.293313 -2.474874 248.949658 
C -3.131218 249.606002 -3.5 250.49632 -3.5 251.424531 
C -3.5 252.352742 -3.131218 253.243061 -2.474874 253.899405 
C -1.81853 254.555749 -0.928211 254.924531 0 254.924531 
z
" style="fill:none;stroke:#1f1f1f;"/>
   </g>
   <g id="PathCollection_16">
    <defs>
     <path d="M 0 3.5 
C 0.928211 3.5 1.81853 3.131218 2.474874 2.474874 
C 3.131218 1.81853 3.5 0.928211 3.5 -0 
C 3.5 -0.928211 3.131218 -1.81853 2.474874 -2.474874 
C 1.81853 -3.131218 0.928211 -3.5 0 -3.5 
C -0.928211 -3.5 -1.81853 -3.131218 -2.474874 -2.474874 
C -3.131218 -1.81853 -3.5 -0.928211 -3.5 0 
C -3.5 0.928211 -3.131218 1.81853 -2.474874 2.474874 
C -1.81853 3.131218 -0.928211 3.5 0 3.5 
z
" id="C2_0_ebde0712b6"/>
    </defs>
    <g clip-path="url(#p138816bb70)">
     <use style="fill:#333333;stroke:#1f1f1f;" x="118.432166" xlink:href="#C2_0_ebde0712b6" y="127.166539"/>
    </g>
    <g clip-path="url(#p138816bb70)">
     <use style="fill:#333333;stroke:#1f1f1f;" x="118.38253" xlink:href="#C2_0_ebde0712b6" y="99.062419"/>
    </g>
    <g clip-path="url(#p138816bb70)">
     <use style="fill:#333333;stroke:#1f1f1f;" x="119.230798" xlink:href="#C2_0_ebde0712b6" y="88.190419"/>
    </g>
    <g clip-path="url(#p138816bb70)">
     <use style="fill:#333333;stroke:#1f1f1f;" x="119.249042" xlink:href="#C2_0_ebde0712b6" y="108.303619"/>
    </g>
   </g>
   <g id="PathCollection_17">
    <path clip-path="url(#p138816bb70)" d="M 0 254.924531 
C 0.928211 254.924531 1.81853 254.555749 2.474874 253.899405 
C 3.131218 253.243061 3.5 252.352742 3.5 251.424531 
C 3.5 250.49632 3.131218 249.606002 2.474874 248.949658 
C 1.81853 248.293313 0.928211 247.924531 0 247.924531 
C -0.928211 247.924531 -1.81853 248.293313 -2.474874 248.949658 
C -3.131218 249.606002 -3.5 250.49632 -3.5 251.424531 
C -3.5 252.352742 -3.131218 253.243061 -2.474874 253.899405 
C -1.81853 254.555749 -0.928211 254.924531 0 254.924531 
z
" style="fill:none;stroke:#1f1f1f;"/>
   </g>
   <g id="PathCollection_18">
    <path clip-path="url(#p138816bb70)" d="M 0 254.924531 
C 0.928211 254.924531 1.81853 254.555749 2.474874 253.899405 
C 3.131218 253.243061 3.5 252.352742 3.5 251.424531 
C 3.5 250.49632 3.131218 249.606002 2.474874 248.949658 
C 1.81853 248.293313 0.928211 247.924531 0 247.924531 
C -0.928211 247.924531 -1.81853 248.293313 -2.474874 248.949658 
C -3.131218 249.606002 -3.5 250.49632 -3.5 251.424531 
C -3.5 252.352742 -3.131218 253.243061 -2.474874 253.899405 
C -1.81853 254.555749 -0.928211 254.924531 0 254.924531 
z
" style="fill:none;stroke:#1f1f1f;"/>
   </g>
   <g id="PathCollection_19">
    <path clip-path="url(#p138816bb70)" d="M 0 254.924531 
C 0.928211 254.924531 1.81853 254.555749 2.474874 253.899405 
C 3.131218 253.243061 3.5 252.352742 3.5 251.424531 
C 3.5 250.49632 3.131218 249.606002 2.474874 248.949658 
C 1.81853 248.293313 0.928211 247.924531 0 247.924531 
C -0.928211 247.924531 -1.81853 248.293313 -2.474874 248.949658 
C -3.131218 249.606002 -3.5 250.49632 -3.5 251.424531 
C -3.5 252.352742 -3.131218 253.243061 -2.474874 253.899405 
C -1.81853 254.555749 -0.928211 254.924531 0 254.924531 
z
" style="fill:none;stroke:#1f1f1f;"/>
   </g>
   <g id="PathCollection_20">
    <defs>
     <path d="M 0 3.5 
C 0.928211 3.5 1.81853 3.131218 2.474874 2.474874 
C 3.131218 1.81853 3.5 0.928211 3.5 -0 
C 3.5 -0.928211 3.131218 -1.81853 2.474874 -2.474874 
C 1.81853 -3.131218 0.928211 -3.5 0 -3.5 
C -0.928211 -3.5 -1.81853 -3.131218 -2.474874 -2.474874 
C -3.131218 -1.81853 -3.5 -0.928211 -3.5 0 
C -3.5 0.928211 -3.131218 1.81853 -2.474874 2.474874 
C -1.81853 3.131218 -0.928211 3.5 0 3.5 
z
" id="C3_0_6d59e20509"/>
    </defs>
    <g clip-path="url(#p138816bb70)">
     <use style="fill:#333333;stroke:#1f1f1f;" x="146.269266" xlink:href="#C3_0_6d59e20509" y="32.199619"/>
    </g>
    <g clip-path="url(#p138816bb70)">
     <use style="fill:#333333;stroke:#1f1f1f;" x="147.053877" xlink:href="#C3_0_6d59e20509" y="106.129219"/>
    </g>
    <g clip-path="url(#p138816bb70)">
     <use style="fill:#333333;stroke:#1f1f1f;" x="146.93292" xlink:href="#C3_0_6d59e20509" y="40.353619"/>
    </g>
    <g clip-path="url(#p138816bb70)">
     <use style="fill:#333333;stroke:#1f1f1f;" x="146.721096" xlink:href="#C3_0_6d59e20509" y="77.862019"/>
    </g>
   </g>
  </g>
 </g>
 <defs>
  <clipPath id="p138816bb70">
   <rect height="163.08" width="111.6" x="40.603125" y="10.999219"/>
  </clipPath>
 </defs>
</svg>
